<?xml version="1.0" encoding="UTF-8" ?>
<svg version="1.1" width="64" height="64" xmlns="http://www.w3.org/2000/svg" shape-rendering="crispEdges">
<rect x="30" y="23" width="1" height="1" fill="#25211F" />
<rect x="31" y="23" width="1" height="1" fill="#25211F" />
<rect x="32" y="23" width="1" height="1" fill="#25211F" />
<rect x="29" y="24" width="1" height="1" fill="#25211F" />
<rect x="30" y="24" width="1" height="1" fill="#25211F" />
<rect x="31" y="24" width="1" height="1" fill="#25211F" />
<rect x="32" y="24" width="1" height="1" fill="#25211F" />
<rect x="33" y="24" width="1" height="1" fill="#25211F" />
<rect x="49" y="24" width="1" height="1" fill="#25211F" />
<rect x="50" y="24" width="1" height="1" fill="#25211F" />
<rect x="51" y="24" width="1" height="1" fill="#25211F" />
<rect x="52" y="24" width="1" height="1" fill="#25211F" />
<rect x="29" y="25" width="1" height="1" fill="#25211F" />
<rect x="30" y="25" width="1" height="1" fill="#25211F" />
<rect x="31" y="25" width="1" height="1" fill="#25211F" />
<rect x="32" y="25" width="1" height="1" fill="#25211F" />
<rect x="33" y="25" width="1" height="1" fill="#25211F" />
<rect x="34" y="25" width="1" height="1" fill="#25211F" />
<rect x="35" y="25" width="1" height="1" fill="#25211F" />
<rect x="48" y="25" width="1" height="1" fill="#25211F" />
<rect x="49" y="25" width="1" height="1" fill="#25211F" />
<rect x="50" y="25" width="1" height="1" fill="#25211F" />
<rect x="51" y="25" width="1" height="1" fill="#25211F" />
<rect x="52" y="25" width="1" height="1" fill="#25211F" />
<rect x="53" y="25" width="1" height="1" fill="#25211F" />
<rect x="54" y="25" width="1" height="1" fill="#25211F" />
<rect x="55" y="25" width="1" height="1" fill="#25211F" />
<rect x="56" y="25" width="1" height="1" fill="#25211F" />
<rect x="57" y="25" width="1" height="1" fill="#25211F" />
<rect x="58" y="25" width="1" height="1" fill="#25211F" />
<rect x="30" y="26" width="1" height="1" fill="#25211F" />
<rect x="31" y="26" width="1" height="1" fill="#25211F" />
<rect x="32" y="26" width="1" height="1" fill="#25211F" />
<rect x="33" y="26" width="1" height="1" fill="#25211F" />
<rect x="34" y="26" width="1" height="1" fill="#25211F" />
<rect x="35" y="26" width="1" height="1" fill="#25211F" />
<rect x="36" y="26" width="1" height="1" fill="#25211F" />
<rect x="47" y="26" width="1" height="1" fill="#25211F" />
<rect x="48" y="26" width="1" height="1" fill="#25211F" />
<rect x="49" y="26" width="1" height="1" fill="#25211F" />
<rect x="50" y="26" width="1" height="1" fill="#25211F" />
<rect x="51" y="26" width="1" height="1" fill="#25211F" />
<rect x="52" y="26" width="1" height="1" fill="#AFC168" />
<rect x="53" y="26" width="1" height="1" fill="#AFC168" />
<rect x="54" y="26" width="1" height="1" fill="#25211F" />
<rect x="55" y="26" width="1" height="1" fill="#25211F" />
<rect x="56" y="26" width="1" height="1" fill="#25211F" />
<rect x="57" y="26" width="1" height="1" fill="#25211F" />
<rect x="58" y="26" width="1" height="1" fill="#25211F" />
<rect x="59" y="26" width="1" height="1" fill="#25211F" />
<rect x="7" y="27" width="1" height="1" fill="#25211F" />
<rect x="8" y="27" width="1" height="1" fill="#25211F" />
<rect x="9" y="27" width="1" height="1" fill="#25211F" />
<rect x="10" y="27" width="1" height="1" fill="#25211F" />
<rect x="11" y="27" width="1" height="1" fill="#25211F" />
<rect x="32" y="27" width="1" height="1" fill="#25211F" />
<rect x="33" y="27" width="1" height="1" fill="#25211F" />
<rect x="34" y="27" width="1" height="1" fill="#25211F" />
<rect x="35" y="27" width="1" height="1" fill="#25211F" />
<rect x="36" y="27" width="1" height="1" fill="#25211F" />
<rect x="37" y="27" width="1" height="1" fill="#25211F" />
<rect x="46" y="27" width="1" height="1" fill="#25211F" />
<rect x="47" y="27" width="1" height="1" fill="#25211F" />
<rect x="48" y="27" width="1" height="1" fill="#25211F" />
<rect x="49" y="27" width="1" height="1" fill="#25211F" />
<rect x="50" y="27" width="1" height="1" fill="#25211F" />
<rect x="51" y="27" width="1" height="1" fill="#AFC168" />
<rect x="52" y="27" width="1" height="1" fill="#AFC168" />
<rect x="53" y="27" width="1" height="1" fill="#AFC168" />
<rect x="54" y="27" width="1" height="1" fill="#AFC168" />
<rect x="55" y="27" width="1" height="1" fill="#AFC168" />
<rect x="56" y="27" width="1" height="1" fill="#25211F" />
<rect x="57" y="27" width="1" height="1" fill="#25211F" />
<rect x="58" y="27" width="1" height="1" fill="#25211F" />
<rect x="59" y="27" width="1" height="1" fill="#25211F" />
<rect x="60" y="27" width="1" height="1" fill="#25211F" />
<rect x="6" y="28" width="1" height="1" fill="#25211F" />
<rect x="7" y="28" width="1" height="1" fill="#25211F" />
<rect x="8" y="28" width="1" height="1" fill="#25211F" />
<rect x="9" y="28" width="1" height="1" fill="#25211F" />
<rect x="10" y="28" width="1" height="1" fill="#25211F" />
<rect x="11" y="28" width="1" height="1" fill="#25211F" />
<rect x="12" y="28" width="1" height="1" fill="#25211F" />
<rect x="33" y="28" width="1" height="1" fill="#25211F" />
<rect x="34" y="28" width="1" height="1" fill="#25211F" />
<rect x="35" y="28" width="1" height="1" fill="#25211F" />
<rect x="36" y="28" width="1" height="1" fill="#25211F" />
<rect x="37" y="28" width="1" height="1" fill="#25211F" />
<rect x="38" y="28" width="1" height="1" fill="#25211F" />
<rect x="46" y="28" width="1" height="1" fill="#25211F" />
<rect x="47" y="28" width="1" height="1" fill="#25211F" />
<rect x="48" y="28" width="1" height="1" fill="#25211F" />
<rect x="49" y="28" width="1" height="1" fill="#25211F" />
<rect x="50" y="28" width="1" height="1" fill="#AFC168" />
<rect x="51" y="28" width="1" height="1" fill="#AFC168" />
<rect x="52" y="28" width="1" height="1" fill="#AFC168" />
<rect x="53" y="28" width="1" height="1" fill="#AFC168" />
<rect x="54" y="28" width="1" height="1" fill="#AFC168" />
<rect x="55" y="28" width="1" height="1" fill="#AFC168" />
<rect x="56" y="28" width="1" height="1" fill="#AFC168" />
<rect x="57" y="28" width="1" height="1" fill="#25211F" />
<rect x="58" y="28" width="1" height="1" fill="#25211F" />
<rect x="59" y="28" width="1" height="1" fill="#25211F" />
<rect x="60" y="28" width="1" height="1" fill="#25211F" />
<rect x="5" y="29" width="1" height="1" fill="#25211F" />
<rect x="6" y="29" width="1" height="1" fill="#25211F" />
<rect x="7" y="29" width="1" height="1" fill="#25211F" />
<rect x="8" y="29" width="1" height="1" fill="#25211F" />
<rect x="9" y="29" width="1" height="1" fill="#25211F" />
<rect x="10" y="29" width="1" height="1" fill="#25211F" />
<rect x="11" y="29" width="1" height="1" fill="#25211F" />
<rect x="12" y="29" width="1" height="1" fill="#25211F" />
<rect x="13" y="29" width="1" height="1" fill="#25211F" />
<rect x="35" y="29" width="1" height="1" fill="#25211F" />
<rect x="36" y="29" width="1" height="1" fill="#25211F" />
<rect x="37" y="29" width="1" height="1" fill="#25211F" />
<rect x="38" y="29" width="1" height="1" fill="#25211F" />
<rect x="39" y="29" width="1" height="1" fill="#25211F" />
<rect x="46" y="29" width="1" height="1" fill="#25211F" />
<rect x="47" y="29" width="1" height="1" fill="#25211F" />
<rect x="48" y="29" width="1" height="1" fill="#25211F" />
<rect x="49" y="29" width="1" height="1" fill="#AFC168" />
<rect x="50" y="29" width="1" height="1" fill="#AFC168" />
<rect x="51" y="29" width="1" height="1" fill="#AFC168" />
<rect x="52" y="29" width="1" height="1" fill="#AFC168" />
<rect x="53" y="29" width="1" height="1" fill="#AFC168" />
<rect x="54" y="29" width="1" height="1" fill="#AFC168" />
<rect x="55" y="29" width="1" height="1" fill="#AFC168" />
<rect x="56" y="29" width="1" height="1" fill="#AFC168" />
<rect x="57" y="29" width="1" height="1" fill="#AFC168" />
<rect x="58" y="29" width="1" height="1" fill="#25211F" />
<rect x="59" y="29" width="1" height="1" fill="#25211F" />
<rect x="60" y="29" width="1" height="1" fill="#25211F" />
<rect x="61" y="29" width="1" height="1" fill="#25211F" />
<rect x="5" y="30" width="1" height="1" fill="#25211F" />
<rect x="6" y="30" width="1" height="1" fill="#25211F" />
<rect x="7" y="30" width="1" height="1" fill="#25211F" />
<rect x="8" y="30" width="1" height="1" fill="#25211F" />
<rect x="9" y="30" width="1" height="1" fill="#25211F" />
<rect x="10" y="30" width="1" height="1" fill="#25211F" />
<rect x="11" y="30" width="1" height="1" fill="#25211F" />
<rect x="12" y="30" width="1" height="1" fill="#25211F" />
<rect x="13" y="30" width="1" height="1" fill="#25211F" />
<rect x="17" y="30" width="1" height="1" fill="#25211F" />
<rect x="18" y="30" width="1" height="1" fill="#25211F" />
<rect x="19" y="30" width="1" height="1" fill="#25211F" />
<rect x="20" y="30" width="1" height="1" fill="#25211F" />
<rect x="21" y="30" width="1" height="1" fill="#25211F" />
<rect x="22" y="30" width="1" height="1" fill="#25211F" />
<rect x="23" y="30" width="1" height="1" fill="#25211F" />
<rect x="24" y="30" width="1" height="1" fill="#25211F" />
<rect x="25" y="30" width="1" height="1" fill="#25211F" />
<rect x="26" y="30" width="1" height="1" fill="#25211F" />
<rect x="27" y="30" width="1" height="1" fill="#25211F" />
<rect x="28" y="30" width="1" height="1" fill="#25211F" />
<rect x="29" y="30" width="1" height="1" fill="#25211F" />
<rect x="30" y="30" width="1" height="1" fill="#25211F" />
<rect x="31" y="30" width="1" height="1" fill="#25211F" />
<rect x="32" y="30" width="1" height="1" fill="#25211F" />
<rect x="33" y="30" width="1" height="1" fill="#25211F" />
<rect x="34" y="30" width="1" height="1" fill="#25211F" />
<rect x="35" y="30" width="1" height="1" fill="#25211F" />
<rect x="36" y="30" width="1" height="1" fill="#25211F" />
<rect x="37" y="30" width="1" height="1" fill="#25211F" />
<rect x="38" y="30" width="1" height="1" fill="#25211F" />
<rect x="39" y="30" width="1" height="1" fill="#25211F" />
<rect x="46" y="30" width="1" height="1" fill="#25211F" />
<rect x="47" y="30" width="1" height="1" fill="#25211F" />
<rect x="48" y="30" width="1" height="1" fill="#25211F" />
<rect x="49" y="30" width="1" height="1" fill="#AFC168" />
<rect x="50" y="30" width="1" height="1" fill="#AFC168" />
<rect x="51" y="30" width="1" height="1" fill="#AFC168" />
<rect x="52" y="30" width="1" height="1" fill="#AFC168" />
<rect x="53" y="30" width="1" height="1" fill="#AFC168" />
<rect x="54" y="30" width="1" height="1" fill="#AFC168" />
<rect x="55" y="30" width="1" height="1" fill="#AFC168" />
<rect x="56" y="30" width="1" height="1" fill="#AFC168" />
<rect x="57" y="30" width="1" height="1" fill="#AFC168" />
<rect x="58" y="30" width="1" height="1" fill="#25211F" />
<rect x="59" y="30" width="1" height="1" fill="#25211F" />
<rect x="60" y="30" width="1" height="1" fill="#25211F" />
<rect x="61" y="30" width="1" height="1" fill="#25211F" />
<rect x="5" y="31" width="1" height="1" fill="#25211F" />
<rect x="6" y="31" width="1" height="1" fill="#25211F" />
<rect x="7" y="31" width="1" height="1" fill="#25211F" />
<rect x="8" y="31" width="1" height="1" fill="#25211F" />
<rect x="9" y="31" width="1" height="1" fill="#25211F" />
<rect x="10" y="31" width="1" height="1" fill="#25211F" />
<rect x="11" y="31" width="1" height="1" fill="#25211F" />
<rect x="12" y="31" width="1" height="1" fill="#25211F" />
<rect x="13" y="31" width="1" height="1" fill="#25211F" />
<rect x="16" y="31" width="1" height="1" fill="#25211F" />
<rect x="17" y="31" width="1" height="1" fill="#25211F" />
<rect x="18" y="31" width="1" height="1" fill="#25211F" />
<rect x="19" y="31" width="1" height="1" fill="#25211F" />
<rect x="20" y="31" width="1" height="1" fill="#25211F" />
<rect x="21" y="31" width="1" height="1" fill="#25211F" />
<rect x="22" y="31" width="1" height="1" fill="#25211F" />
<rect x="23" y="31" width="1" height="1" fill="#25211F" />
<rect x="24" y="31" width="1" height="1" fill="#25211F" />
<rect x="25" y="31" width="1" height="1" fill="#25211F" />
<rect x="26" y="31" width="1" height="1" fill="#25211F" />
<rect x="27" y="31" width="1" height="1" fill="#25211F" />
<rect x="28" y="31" width="1" height="1" fill="#25211F" />
<rect x="29" y="31" width="1" height="1" fill="#25211F" />
<rect x="30" y="31" width="1" height="1" fill="#25211F" />
<rect x="31" y="31" width="1" height="1" fill="#25211F" />
<rect x="32" y="31" width="1" height="1" fill="#25211F" />
<rect x="33" y="31" width="1" height="1" fill="#25211F" />
<rect x="34" y="31" width="1" height="1" fill="#25211F" />
<rect x="35" y="31" width="1" height="1" fill="#25211F" />
<rect x="36" y="31" width="1" height="1" fill="#25211F" />
<rect x="37" y="31" width="1" height="1" fill="#25211F" />
<rect x="38" y="31" width="1" height="1" fill="#25211F" />
<rect x="39" y="31" width="1" height="1" fill="#25211F" />
<rect x="40" y="31" width="1" height="1" fill="#25211F" />
<rect x="46" y="31" width="1" height="1" fill="#25211F" />
<rect x="47" y="31" width="1" height="1" fill="#25211F" />
<rect x="48" y="31" width="1" height="1" fill="#25211F" />
<rect x="49" y="31" width="1" height="1" fill="#AFC168" />
<rect x="50" y="31" width="1" height="1" fill="#AFC168" />
<rect x="51" y="31" width="1" height="1" fill="#AFC168" />
<rect x="52" y="31" width="1" height="1" fill="#AFC168" />
<rect x="53" y="31" width="1" height="1" fill="#AFC168" />
<rect x="54" y="31" width="1" height="1" fill="#AFC168" />
<rect x="55" y="31" width="1" height="1" fill="#AFC168" />
<rect x="56" y="31" width="1" height="1" fill="#AFC168" />
<rect x="57" y="31" width="1" height="1" fill="#AFC168" />
<rect x="58" y="31" width="1" height="1" fill="#25211F" />
<rect x="59" y="31" width="1" height="1" fill="#25211F" />
<rect x="60" y="31" width="1" height="1" fill="#25211F" />
<rect x="61" y="31" width="1" height="1" fill="#25211F" />
<rect x="5" y="32" width="1" height="1" fill="#25211F" />
<rect x="6" y="32" width="1" height="1" fill="#25211F" />
<rect x="7" y="32" width="1" height="1" fill="#25211F" />
<rect x="8" y="32" width="1" height="1" fill="#25211F" />
<rect x="9" y="32" width="1" height="1" fill="#25211F" />
<rect x="10" y="32" width="1" height="1" fill="#25211F" />
<rect x="11" y="32" width="1" height="1" fill="#25211F" />
<rect x="12" y="32" width="1" height="1" fill="#25211F" />
<rect x="13" y="32" width="1" height="1" fill="#25211F" />
<rect x="16" y="32" width="1" height="1" fill="#25211F" />
<rect x="17" y="32" width="1" height="1" fill="#25211F" />
<rect x="18" y="32" width="1" height="1" fill="#25211F" />
<rect x="19" y="32" width="1" height="1" fill="#25211F" />
<rect x="20" y="32" width="1" height="1" fill="#25211F" />
<rect x="21" y="32" width="1" height="1" fill="#25211F" />
<rect x="22" y="32" width="1" height="1" fill="#25211F" />
<rect x="23" y="32" width="1" height="1" fill="#25211F" />
<rect x="24" y="32" width="1" height="1" fill="#25211F" />
<rect x="25" y="32" width="1" height="1" fill="#25211F" />
<rect x="26" y="32" width="1" height="1" fill="#25211F" />
<rect x="27" y="32" width="1" height="1" fill="#25211F" />
<rect x="28" y="32" width="1" height="1" fill="#25211F" />
<rect x="29" y="32" width="1" height="1" fill="#25211F" />
<rect x="30" y="32" width="1" height="1" fill="#25211F" />
<rect x="31" y="32" width="1" height="1" fill="#25211F" />
<rect x="32" y="32" width="1" height="1" fill="#25211F" />
<rect x="33" y="32" width="1" height="1" fill="#25211F" />
<rect x="34" y="32" width="1" height="1" fill="#25211F" />
<rect x="35" y="32" width="1" height="1" fill="#25211F" />
<rect x="36" y="32" width="1" height="1" fill="#25211F" />
<rect x="37" y="32" width="1" height="1" fill="#25211F" />
<rect x="38" y="32" width="1" height="1" fill="#25211F" />
<rect x="39" y="32" width="1" height="1" fill="#25211F" />
<rect x="40" y="32" width="1" height="1" fill="#25211F" />
<rect x="46" y="32" width="1" height="1" fill="#25211F" />
<rect x="47" y="32" width="1" height="1" fill="#25211F" />
<rect x="48" y="32" width="1" height="1" fill="#25211F" />
<rect x="49" y="32" width="1" height="1" fill="#25211F" />
<rect x="50" y="32" width="1" height="1" fill="#AFC168" />
<rect x="51" y="32" width="1" height="1" fill="#AFC168" />
<rect x="52" y="32" width="1" height="1" fill="#AFC168" />
<rect x="53" y="32" width="1" height="1" fill="#AFC168" />
<rect x="54" y="32" width="1" height="1" fill="#AFC168" />
<rect x="55" y="32" width="1" height="1" fill="#AFC168" />
<rect x="56" y="32" width="1" height="1" fill="#AFC168" />
<rect x="57" y="32" width="1" height="1" fill="#25211F" />
<rect x="58" y="32" width="1" height="1" fill="#25211F" />
<rect x="59" y="32" width="1" height="1" fill="#25211F" />
<rect x="60" y="32" width="1" height="1" fill="#25211F" />
<rect x="5" y="33" width="1" height="1" fill="#25211F" />
<rect x="6" y="33" width="1" height="1" fill="#25211F" />
<rect x="7" y="33" width="1" height="1" fill="#25211F" />
<rect x="8" y="33" width="1" height="1" fill="#25211F" />
<rect x="9" y="33" width="1" height="1" fill="#25211F" />
<rect x="10" y="33" width="1" height="1" fill="#25211F" />
<rect x="11" y="33" width="1" height="1" fill="#25211F" />
<rect x="12" y="33" width="1" height="1" fill="#25211F" />
<rect x="13" y="33" width="1" height="1" fill="#25211F" />
<rect x="17" y="33" width="1" height="1" fill="#25211F" />
<rect x="18" y="33" width="1" height="1" fill="#25211F" />
<rect x="19" y="33" width="1" height="1" fill="#25211F" />
<rect x="20" y="33" width="1" height="1" fill="#25211F" />
<rect x="21" y="33" width="1" height="1" fill="#25211F" />
<rect x="22" y="33" width="1" height="1" fill="#25211F" />
<rect x="23" y="33" width="1" height="1" fill="#25211F" />
<rect x="24" y="33" width="1" height="1" fill="#25211F" />
<rect x="25" y="33" width="1" height="1" fill="#25211F" />
<rect x="26" y="33" width="1" height="1" fill="#25211F" />
<rect x="27" y="33" width="1" height="1" fill="#25211F" />
<rect x="28" y="33" width="1" height="1" fill="#25211F" />
<rect x="29" y="33" width="1" height="1" fill="#25211F" />
<rect x="30" y="33" width="1" height="1" fill="#25211F" />
<rect x="31" y="33" width="1" height="1" fill="#25211F" />
<rect x="32" y="33" width="1" height="1" fill="#25211F" />
<rect x="33" y="33" width="1" height="1" fill="#25211F" />
<rect x="34" y="33" width="1" height="1" fill="#25211F" />
<rect x="35" y="33" width="1" height="1" fill="#25211F" />
<rect x="36" y="33" width="1" height="1" fill="#25211F" />
<rect x="37" y="33" width="1" height="1" fill="#25211F" />
<rect x="38" y="33" width="1" height="1" fill="#25211F" />
<rect x="39" y="33" width="1" height="1" fill="#25211F" />
<rect x="46" y="33" width="1" height="1" fill="#25211F" />
<rect x="47" y="33" width="1" height="1" fill="#25211F" />
<rect x="48" y="33" width="1" height="1" fill="#25211F" />
<rect x="49" y="33" width="1" height="1" fill="#25211F" />
<rect x="50" y="33" width="1" height="1" fill="#25211F" />
<rect x="51" y="33" width="1" height="1" fill="#AFC168" />
<rect x="52" y="33" width="1" height="1" fill="#AFC168" />
<rect x="53" y="33" width="1" height="1" fill="#AFC168" />
<rect x="54" y="33" width="1" height="1" fill="#AFC168" />
<rect x="55" y="33" width="1" height="1" fill="#AFC168" />
<rect x="56" y="33" width="1" height="1" fill="#25211F" />
<rect x="57" y="33" width="1" height="1" fill="#25211F" />
<rect x="58" y="33" width="1" height="1" fill="#25211F" />
<rect x="59" y="33" width="1" height="1" fill="#25211F" />
<rect x="60" y="33" width="1" height="1" fill="#25211F" />
<rect x="6" y="34" width="1" height="1" fill="#25211F" />
<rect x="7" y="34" width="1" height="1" fill="#25211F" />
<rect x="8" y="34" width="1" height="1" fill="#25211F" />
<rect x="9" y="34" width="1" height="1" fill="#25211F" />
<rect x="10" y="34" width="1" height="1" fill="#25211F" />
<rect x="11" y="34" width="1" height="1" fill="#25211F" />
<rect x="12" y="34" width="1" height="1" fill="#25211F" />
<rect x="13" y="34" width="1" height="1" fill="#25211F" />
<rect x="33" y="34" width="1" height="1" fill="#25211F" />
<rect x="34" y="34" width="1" height="1" fill="#25211F" />
<rect x="35" y="34" width="1" height="1" fill="#25211F" />
<rect x="36" y="34" width="1" height="1" fill="#25211F" />
<rect x="37" y="34" width="1" height="1" fill="#25211F" />
<rect x="38" y="34" width="1" height="1" fill="#25211F" />
<rect x="47" y="34" width="1" height="1" fill="#25211F" />
<rect x="48" y="34" width="1" height="1" fill="#25211F" />
<rect x="49" y="34" width="1" height="1" fill="#25211F" />
<rect x="50" y="34" width="1" height="1" fill="#25211F" />
<rect x="51" y="34" width="1" height="1" fill="#25211F" />
<rect x="52" y="34" width="1" height="1" fill="#AFC168" />
<rect x="53" y="34" width="1" height="1" fill="#AFC168" />
<rect x="54" y="34" width="1" height="1" fill="#AFC168" />
<rect x="55" y="34" width="1" height="1" fill="#25211F" />
<rect x="56" y="34" width="1" height="1" fill="#25211F" />
<rect x="57" y="34" width="1" height="1" fill="#25211F" />
<rect x="58" y="34" width="1" height="1" fill="#25211F" />
<rect x="59" y="34" width="1" height="1" fill="#25211F" />
<rect x="7" y="35" width="1" height="1" fill="#25211F" />
<rect x="8" y="35" width="1" height="1" fill="#25211F" />
<rect x="9" y="35" width="1" height="1" fill="#25211F" />
<rect x="10" y="35" width="1" height="1" fill="#25211F" />
<rect x="11" y="35" width="1" height="1" fill="#25211F" />
<rect x="12" y="35" width="1" height="1" fill="#25211F" />
<rect x="32" y="35" width="1" height="1" fill="#25211F" />
<rect x="33" y="35" width="1" height="1" fill="#25211F" />
<rect x="34" y="35" width="1" height="1" fill="#25211F" />
<rect x="35" y="35" width="1" height="1" fill="#25211F" />
<rect x="36" y="35" width="1" height="1" fill="#25211F" />
<rect x="37" y="35" width="1" height="1" fill="#25211F" />
<rect x="48" y="35" width="1" height="1" fill="#25211F" />
<rect x="49" y="35" width="1" height="1" fill="#25211F" />
<rect x="50" y="35" width="1" height="1" fill="#25211F" />
<rect x="51" y="35" width="1" height="1" fill="#25211F" />
<rect x="52" y="35" width="1" height="1" fill="#25211F" />
<rect x="53" y="35" width="1" height="1" fill="#25211F" />
<rect x="54" y="35" width="1" height="1" fill="#25211F" />
<rect x="55" y="35" width="1" height="1" fill="#25211F" />
<rect x="56" y="35" width="1" height="1" fill="#25211F" />
<rect x="57" y="35" width="1" height="1" fill="#25211F" />
<rect x="58" y="35" width="1" height="1" fill="#25211F" />
<rect x="8" y="36" width="1" height="1" fill="#25211F" />
<rect x="9" y="36" width="1" height="1" fill="#25211F" />
<rect x="10" y="36" width="1" height="1" fill="#25211F" />
<rect x="11" y="36" width="1" height="1" fill="#25211F" />
<rect x="31" y="36" width="1" height="1" fill="#25211F" />
<rect x="32" y="36" width="1" height="1" fill="#25211F" />
<rect x="33" y="36" width="1" height="1" fill="#25211F" />
<rect x="34" y="36" width="1" height="1" fill="#25211F" />
<rect x="35" y="36" width="1" height="1" fill="#25211F" />
<rect x="36" y="36" width="1" height="1" fill="#25211F" />
<rect x="49" y="36" width="1" height="1" fill="#25211F" />
<rect x="50" y="36" width="1" height="1" fill="#25211F" />
<rect x="51" y="36" width="1" height="1" fill="#25211F" />
<rect x="52" y="36" width="1" height="1" fill="#25211F" />
<rect x="53" y="36" width="1" height="1" fill="#25211F" />
<rect x="54" y="36" width="1" height="1" fill="#25211F" />
<rect x="55" y="36" width="1" height="1" fill="#25211F" />
<rect x="56" y="36" width="1" height="1" fill="#25211F" />
<rect x="57" y="36" width="1" height="1" fill="#25211F" />
<rect x="58" y="36" width="1" height="1" fill="#25211F" />
<rect x="30" y="37" width="1" height="1" fill="#25211F" />
<rect x="31" y="37" width="1" height="1" fill="#25211F" />
<rect x="32" y="37" width="1" height="1" fill="#25211F" />
<rect x="33" y="37" width="1" height="1" fill="#25211F" />
<rect x="34" y="37" width="1" height="1" fill="#25211F" />
<rect x="35" y="37" width="1" height="1" fill="#25211F" />
<rect x="50" y="37" width="1" height="1" fill="#25211F" />
<rect x="51" y="37" width="1" height="1" fill="#25211F" />
<rect x="52" y="37" width="1" height="1" fill="#25211F" />
<rect x="53" y="37" width="1" height="1" fill="#25211F" />
<rect x="54" y="37" width="1" height="1" fill="#25211F" />
<rect x="55" y="37" width="1" height="1" fill="#25211F" />
<rect x="56" y="37" width="1" height="1" fill="#25211F" />
<rect x="57" y="37" width="1" height="1" fill="#25211F" />
<rect x="29" y="38" width="1" height="1" fill="#25211F" />
<rect x="30" y="38" width="1" height="1" fill="#25211F" />
<rect x="31" y="38" width="1" height="1" fill="#25211F" />
<rect x="32" y="38" width="1" height="1" fill="#25211F" />
<rect x="33" y="38" width="1" height="1" fill="#25211F" />
<rect x="34" y="38" width="1" height="1" fill="#25211F" />
<rect x="51" y="38" width="1" height="1" fill="#25211F" />
<rect x="52" y="38" width="1" height="1" fill="#25211F" />
<rect x="53" y="38" width="1" height="1" fill="#25211F" />
<rect x="54" y="38" width="1" height="1" fill="#25211F" />
<rect x="55" y="38" width="1" height="1" fill="#25211F" />
<rect x="56" y="38" width="1" height="1" fill="#25211F" />
<rect x="29" y="39" width="1" height="1" fill="#25211F" />
<rect x="30" y="39" width="1" height="1" fill="#25211F" />
<rect x="31" y="39" width="1" height="1" fill="#25211F" />
<rect x="32" y="39" width="1" height="1" fill="#25211F" />
<rect x="33" y="39" width="1" height="1" fill="#25211F" />
<rect x="30" y="40" width="1" height="1" fill="#25211F" />
<rect x="31" y="40" width="1" height="1" fill="#25211F" />
</svg>